<svg xmlns="http://www.w3.org/2000/svg" xmlns:xlink="http://www.w3.org/1999/xlink" width="500" zoomAndPan="magnify" viewBox="0 0 375 374.999991" height="500" preserveAspectRatio="xMidYMid meet" version="1.0"><defs><g/><clipPath id="d8ac0f1d29"><path d="M 43.992188 47.09375 L 330.144531 47.09375 L 330.144531 333.25 L 43.992188 333.25 Z M 43.992188 47.09375 " clip-rule="nonzero"/></clipPath><clipPath id="2c727845e6"><path d="M 187.070312 47.09375 C 108.050781 47.09375 43.992188 111.152344 43.992188 190.171875 C 43.992188 269.191406 108.050781 333.25 187.070312 333.25 C 266.089844 333.25 330.144531 269.191406 330.144531 190.171875 C 330.144531 111.152344 266.089844 47.09375 187.070312 47.09375 " clip-rule="nonzero"/></clipPath><clipPath id="b2ee386fa9"><path d="M 98.40625 98.050781 L 276.808594 98.050781 L 276.808594 276.808594 L 98.40625 276.808594 Z M 98.40625 98.050781 " clip-rule="nonzero"/></clipPath><clipPath id="c16829c6c3"><path d="M 187.5 276.59375 C 163.714844 276.59375 141.316406 267.335938 124.507812 250.492188 C 107.664062 233.683594 98.40625 211.285156 98.40625 187.5 C 98.40625 163.714844 107.664062 141.316406 124.507812 124.507812 C 141.316406 107.664062 163.714844 98.40625 187.5 98.40625 C 211.285156 98.40625 233.683594 107.664062 250.492188 124.507812 C 267.335938 141.351562 276.59375 163.714844 276.59375 187.5 C 276.59375 211.285156 267.335938 233.683594 250.492188 250.492188 C 233.683594 267.335938 211.285156 276.59375 187.5 276.59375 Z M 187.5 103.746094 C 165.136719 103.746094 144.09375 112.472656 128.28125 128.28125 C 112.472656 144.09375 103.746094 165.136719 103.746094 187.5 C 103.746094 209.863281 112.472656 230.90625 128.28125 246.71875 C 144.09375 262.527344 165.136719 271.253906 187.5 271.253906 C 209.863281 271.253906 230.90625 262.527344 246.71875 246.71875 C 262.527344 230.90625 271.253906 209.863281 271.253906 187.5 C 271.253906 165.136719 262.527344 144.09375 246.71875 128.28125 C 230.90625 112.472656 209.863281 103.746094 187.5 103.746094 Z M 187.5 103.746094 " clip-rule="nonzero"/></clipPath><clipPath id="d4af1f6c9b"><path d="M 49.777344 53 L 324.691406 53 L 324.691406 328 L 49.777344 328 Z M 49.777344 53 " clip-rule="nonzero"/></clipPath><clipPath id="a1a495c34b"><path d="M 187.070312 327.902344 C 150.414062 327.902344 115.898438 313.636719 90 287.683594 C 64.042969 261.78125 49.777344 227.265625 49.777344 190.613281 C 49.777344 153.957031 64.042969 119.441406 90 93.542969 C 115.898438 67.585938 150.414062 53.320312 187.070312 53.320312 C 223.722656 53.320312 258.238281 67.585938 284.136719 93.542969 C 310.09375 119.496094 324.359375 153.957031 324.359375 190.613281 C 324.359375 227.265625 310.09375 261.78125 284.136719 287.683594 C 258.238281 313.636719 223.722656 327.902344 187.070312 327.902344 Z M 187.070312 61.550781 C 152.609375 61.550781 120.179688 74.996094 95.816406 99.359375 C 71.453125 123.722656 58.007812 156.152344 58.007812 190.613281 C 58.007812 225.070312 71.453125 257.503906 95.816406 281.867188 C 120.179688 306.230469 152.609375 319.671875 187.070312 319.671875 C 221.527344 319.671875 253.957031 306.230469 278.320312 281.867188 C 302.683594 257.503906 316.128906 225.070312 316.128906 190.613281 C 316.128906 156.152344 302.683594 123.722656 278.320312 99.359375 C 253.957031 74.996094 221.527344 61.550781 187.070312 61.550781 Z M 187.070312 61.550781 " clip-rule="nonzero"/></clipPath><clipPath id="c93caba719"><path d="M 112.183594 135 L 262 135 L 262 242 L 112.183594 242 Z M 112.183594 135 " clip-rule="nonzero"/></clipPath></defs><g clip-path="url(#d8ac0f1d29)"><g clip-path="url(#2c727845e6)"><path fill="#ffffff" d="M 43.992188 47.09375 L 330.144531 47.09375 L 330.144531 333.25 L 43.992188 333.25 Z M 43.992188 47.09375 " fill-opacity="1" fill-rule="nonzero"/></g></g><g clip-path="url(#b2ee386fa9)"><g clip-path="url(#c16829c6c3)"><path fill="#000000" d="M 98.40625 98.40625 L 276.453125 98.40625 L 276.453125 276.453125 L 98.40625 276.453125 Z M 98.40625 98.40625 " fill-opacity="1" fill-rule="nonzero"/></g></g><g clip-path="url(#d4af1f6c9b)"><g clip-path="url(#a1a495c34b)"><path fill="#000000" d="M 49.777344 53.320312 L 324.140625 53.320312 L 324.140625 327.683594 L 49.777344 327.683594 Z M 49.777344 53.320312 " fill-opacity="1" fill-rule="nonzero"/></g></g><g clip-path="url(#c93caba719)"><path fill="#000000" d="M 245.390625 140.398438 C 246.59375 141.386719 247.121094 142.59375 248.09375 143.78125 C 250.496094 146.710938 249.957031 146.015625 254.597656 147.527344 C 255.523438 147.90625 256.542969 148.03125 257.417969 148.535156 C 260.824219 150.273438 262.160156 154.164062 260.929688 156.582031 C 258.183594 155.074219 257.8125 156.570312 253.925781 154.828125 C 247.769531 152.105469 247.261719 153.019531 245.792969 154.097656 C 245.449219 154.300781 245.605469 154.714844 245.605469 155.03125 C 245.660156 155.425781 245.53125 155.832031 245.625 156.214844 C 246 156.585938 246.488281 156.824219 246.863281 157.191406 C 260.152344 170.046875 242.0625 207.515625 209.96875 207.769531 C 209.496094 207.777344 209.003906 207.707031 208.558594 207.894531 C 207.640625 211.898438 208.167969 209.894531 207.96875 211.542969 C 207.878906 212.125 208.316406 212.609375 208.367188 213.175781 C 208.40625 213.542969 208.808594 213.628906 209.085938 213.765625 C 210.191406 214.234375 209.167969 215.929688 209.039062 217.1875 C 208.78125 218.839844 208.332031 216.742188 209.539062 226.253906 C 209.542969 226.6875 209.9375 226.988281 209.886719 227.4375 C 210.101562 228.308594 209.957031 229.230469 210.269531 230.078125 C 211.03125 232.238281 210.984375 235.941406 216.414062 235.390625 C 216.777344 235.339844 217.085938 235.582031 217.425781 235.65625 C 218.40625 235.84375 219.441406 235.535156 220.402344 235.859375 C 221.21875 236.066406 222.03125 236.285156 222.867188 236.421875 C 223.726562 236.484375 224.613281 236.335938 225.453125 236.585938 C 226.515625 237.078125 227.4375 237.820312 228.476562 238.351562 C 231.910156 240.375 231.6875 239.472656 231.929688 240.714844 C 226.765625 242.523438 211.925781 239.617188 213.144531 239.953125 C 208.476562 238.664062 207.636719 240.820312 204.171875 237.460938 C 203.886719 236.953125 203.800781 236.359375 203.699219 235.792969 C 202.898438 231.476562 202.820312 231.34375 203.300781 228.527344 C 204.085938 221.78125 200.621094 216.15625 201.820312 209.652344 C 201.621094 209.695312 201.421875 209.746094 201.222656 209.789062 C 201.441406 209.691406 201.664062 209.609375 201.890625 209.53125 C 201.890625 209.441406 201.886719 209.261719 201.882812 209.171875 C 201.5 209.179688 201.132812 209.292969 200.800781 209.480469 C 200.777344 208.933594 200.105469 208.96875 199.714844 209.054688 C 199.839844 209.007812 199.964844 208.957031 200.09375 208.910156 C 200.113281 208.785156 200.136719 208.660156 200.15625 208.535156 C 198.648438 208.476562 197.121094 208.542969 195.660156 208.953125 C 195.035156 209.15625 194.269531 208.949219 193.753906 209.4375 C 193.195312 209.628906 192.621094 209.777344 192.089844 210.039062 C 192.285156 209.875 192.417969 209.667969 192.308594 209.410156 C 191.816406 209.5 191.269531 209.570312 190.925781 209.964844 C 190.960938 209.796875 191 209.625 191.035156 209.457031 C 190.6875 209.691406 190.351562 209.941406 190.003906 210.171875 C 189.800781 210.324219 189.519531 210.292969 189.332031 210.476562 C 189.066406 210.691406 188.765625 210.859375 188.445312 210.984375 C 188.710938 210.765625 189.1875 210.671875 189.097656 210.238281 C 188.679688 210.335938 188.375 210.640625 187.996094 210.816406 C 187.695312 210.84375 187.386719 210.84375 187.113281 210.988281 C 186.9375 210.757812 186.78125 210.507812 186.828125 210.207031 C 186.976562 210.152344 187.125 210.097656 187.273438 210.039062 C 187.269531 209.960938 187.269531 209.800781 187.269531 209.722656 C 185.421875 210.019531 186.316406 210.214844 185.621094 209.742188 C 186.351562 209.582031 187.113281 209.535156 187.824219 209.28125 C 187.808594 209.210938 187.777344 209.066406 187.761719 208.992188 C 187.390625 208.96875 186.914062 209.265625 186.65625 208.890625 C 185.503906 209.214844 187.273438 209.085938 181.839844 210.183594 C 181.871094 210.019531 181.902344 209.855469 181.929688 209.691406 C 181.699219 209.777344 181.480469 209.890625 181.269531 210.019531 C 181.371094 209.867188 181.46875 209.71875 181.5625 209.566406 C 181.332031 209.605469 181.101562 209.660156 180.867188 209.695312 C 181.011719 209.574219 181.164062 209.460938 181.304688 209.339844 C 179.371094 209.257812 171.894531 211.363281 148.832031 215.882812 C 147.886719 216.003906 146.941406 216.121094 146.011719 216.328125 C 126.730469 219.128906 119.53125 219.496094 119.53125 219.496094 C 119.070312 219.5 118.613281 219.644531 118.152344 219.597656 C 117.34375 219.457031 116.523438 219.648438 115.707031 219.652344 C 115.378906 219.585938 115.046875 219.566406 114.710938 219.585938 C 115.042969 219.4375 115.394531 219.339844 115.730469 219.207031 C 115.554688 219.183594 115.375 219.164062 115.199219 219.144531 L 115.199219 219.101562 C 115.660156 219.097656 116.125 219.101562 116.585938 219.074219 C 117.066406 218.269531 117.429688 218.582031 117.78125 218.429688 C 117.972656 218.277344 118.214844 218.121094 118.214844 217.847656 C 118.585938 217.625 119.046875 217.558594 119.390625 217.300781 C 119.40625 217.242188 119.441406 217.128906 119.457031 217.070312 C 119.089844 217.050781 118.71875 217.042969 118.351562 217.011719 C 119.027344 216.675781 119.742188 216.328125 120.226562 215.734375 C 119.878906 215.707031 113.648438 215.992188 113.460938 216.023438 C 113.527344 215.933594 113.589844 215.84375 113.65625 215.753906 C 113.171875 215.804688 112.6875 215.851562 112.203125 215.855469 C 112.320312 215.796875 112.4375 215.738281 112.554688 215.679688 C 112.488281 215.625 112.417969 215.570312 112.351562 215.515625 C 112.480469 215.519531 112.605469 215.519531 112.730469 215.515625 C 113.492188 214.449219 115.214844 214.140625 115.679688 214.164062 C 115.675781 213.929688 115.449219 213.933594 115.273438 213.898438 C 115.539062 213.910156 115.816406 213.9375 116.078125 213.863281 C 116.253906 213.769531 116.238281 213.5625 116.101562 213.449219 C 116.394531 213.476562 116.683594 213.40625 116.945312 213.277344 C 116.890625 213.246094 116.78125 213.179688 116.730469 213.148438 C 118.195312 212.894531 121.621094 210.46875 122.738281 210.535156 C 123.292969 209.746094 123.691406 210.007812 124.207031 210.058594 C 124.164062 209.921875 124.121094 209.789062 124.078125 209.660156 C 124.351562 209.457031 124.636719 209.269531 124.964844 209.171875 C 125.238281 209.113281 125.351562 208.820312 125.582031 208.703125 C 126.0625 208.648438 126.476562 208.347656 126.976562 208.421875 C 126.917969 208.375 126.796875 208.277344 126.734375 208.230469 C 127.246094 208.050781 127.707031 207.769531 128.105469 207.410156 C 128.441406 207.105469 130.769531 206.316406 131.535156 206.273438 C 131.945312 206.21875 132.300781 206.535156 132.710938 206.472656 C 132.953125 206.398438 133.183594 206.203125 133.128906 205.925781 C 133.460938 205.949219 133.789062 205.988281 134.105469 206.09375 C 134.167969 205.972656 134.234375 205.855469 134.296875 205.738281 C 134.726562 205.554688 135.164062 205.308594 135.640625 205.472656 C 135.65625 205.410156 135.6875 205.28125 135.703125 205.214844 C 136.984375 205.355469 136.183594 205.085938 137.523438 204.910156 C 137.632812 204.246094 137.042969 203.742188 140.417969 200.535156 C 141.292969 199.578125 142.460938 198.960938 143.390625 198.0625 C 143.726562 197.667969 143.628906 197.121094 143.839844 196.683594 C 143.703125 196.558594 143.574219 196.425781 143.460938 196.28125 C 142.914062 196.367188 142.316406 196.074219 142.164062 195.519531 C 142.066406 195.523438 141.972656 195.523438 141.878906 195.527344 C 141.867188 195.1875 141.917969 194.816406 142.171875 194.566406 C 142.6875 194.070312 142.78125 193.324219 143.164062 192.738281 C 145.671875 187.351562 148.050781 189.007812 149.394531 186.980469 C 152.578125 182.625 152.316406 184.394531 154.203125 182.527344 C 154.675781 182.097656 155.371094 182.308594 155.925781 182.078125 C 156.378906 181.476562 157.050781 181.089844 157.515625 180.496094 C 158.578125 179.210938 157.980469 179.722656 159.746094 178.808594 C 160.609375 178.390625 161.34375 177.738281 162.246094 177.390625 C 163.0625 177.066406 163.953125 176.886719 164.65625 176.328125 C 164.492188 176.234375 164.328125 176.144531 164.164062 176.058594 C 164.402344 175.476562 164.441406 175.773438 165.492188 174.699219 C 165.414062 174.617188 165.328125 174.546875 165.234375 174.484375 C 164.941406 174.566406 164.699219 174.761719 164.429688 174.886719 C 164.542969 174.71875 164.675781 174.566406 164.808594 174.414062 C 164.566406 174.230469 164.328125 174.042969 164.089844 173.851562 C 164.3125 173.539062 167.160156 170.347656 170.859375 168.472656 C 173.902344 166.78125 174.5 164.230469 182.519531 161.605469 C 185.082031 160.714844 188.019531 160.371094 189.066406 159.753906 C 189.527344 159.480469 192.664062 158.308594 192.542969 157.882812 C 193.835938 157.472656 194.882812 156.640625 196.214844 156.296875 C 196.683594 156.171875 202.417969 155.578125 202.429688 155.578125 C 203.648438 155.695312 202.597656 156.5 208.082031 154.132812 C 220.878906 148.902344 215.289062 155.46875 219.40625 143.109375 C 223.019531 132.273438 237.8125 134.171875 245.390625 140.398438 Z M 245.390625 140.398438 " fill-opacity="1" fill-rule="nonzero"/></g><g fill="#000000" fill-opacity="1"><g transform="translate(126.57551, 113.043763)"><g><path d="M 3.90625 -18.9375 C 5.601562 -19.382812 7.039062 -18.738281 8.21875 -17 L 10.703125 -13.359375 C 12.585938 -10.597656 12.234375 -8.335938 9.640625 -6.578125 L 1.578125 -1.078125 L -12.28125 -21.40625 L -4.46875 -26.734375 C -1.875 -28.503906 0.367188 -28 2.265625 -25.21875 L 3.515625 -23.375 C 4.660156 -21.695312 4.789062 -20.21875 3.90625 -18.9375 Z M -3.53125 -22.984375 L -5.84375 -21.390625 L -2.140625 -15.96875 L 0.171875 -17.5625 C 0.347656 -17.675781 0.445312 -17.832031 0.46875 -18.03125 C 0.488281 -18.238281 0.445312 -18.421875 0.34375 -18.578125 L -2.515625 -22.765625 C -2.628906 -22.929688 -2.78125 -23.035156 -2.96875 -23.078125 C -3.164062 -23.128906 -3.351562 -23.097656 -3.53125 -22.984375 Z M 6.65625 -9.875 L 3.546875 -14.4375 C 3.441406 -14.59375 3.285156 -14.691406 3.078125 -14.734375 C 2.878906 -14.785156 2.695312 -14.753906 2.53125 -14.640625 L -0.046875 -12.875 L 3.921875 -7.078125 L 6.5 -8.84375 C 6.664062 -8.957031 6.757812 -9.113281 6.78125 -9.3125 C 6.8125 -9.519531 6.769531 -9.707031 6.65625 -9.875 Z M 6.65625 -9.875 "/></g></g></g><g fill="#000000" fill-opacity="1"><g transform="translate(141.464428, 102.910948)"><g><path d="M 2.578125 -12.109375 L 6.609375 -2.890625 L 1.75 -0.765625 L -8.078125 -23.3125 L 0.578125 -27.09375 C 3.460938 -28.351562 5.570312 -27.445312 6.90625 -24.375 L 8.046875 -21.765625 C 8.859375 -19.910156 8.710938 -18.429688 7.609375 -17.328125 C 8.960938 -17.421875 9.960938 -16.726562 10.609375 -15.25 L 14.5 -6.328125 L 9.609375 -4.1875 L 5.890625 -12.71875 C 5.679688 -13.175781 5.359375 -13.3125 4.921875 -13.125 Z M -1.78125 -22.109375 L 1.09375 -15.53125 L 3.671875 -16.65625 C 3.867188 -16.738281 4 -16.875 4.0625 -17.0625 C 4.125 -17.257812 4.117188 -17.445312 4.046875 -17.625 L 1.765625 -22.828125 C 1.691406 -23.003906 1.5625 -23.132812 1.375 -23.21875 C 1.1875 -23.3125 0.992188 -23.316406 0.796875 -23.234375 Z M -1.78125 -22.109375 "/></g></g></g><g fill="#000000" fill-opacity="1"><g transform="translate(158.04133, 96.035745)"><g><path d="M 0.5 -25.625 L 6.96875 -1.890625 L 1.84375 -0.5 L -4.625 -24.234375 Z M 0.5 -25.625 "/></g></g></g><g fill="#000000" fill-opacity="1"><g transform="translate(167.324742, 93.245497)"><g><path d="M 7.828125 -10.796875 L 7.34375 -14.6875 L 14.3125 -15.546875 L 15.421875 -6.578125 C 15.828125 -3.253906 14.476562 -1.398438 11.375 -1.015625 L 6.609375 -0.4375 C 3.492188 -0.0507812 1.734375 -1.519531 1.328125 -4.84375 L -0.546875 -20.03125 C -0.953125 -23.351562 0.398438 -25.207031 3.515625 -25.59375 L 8.28125 -26.171875 C 11.382812 -26.554688 13.140625 -25.085938 13.546875 -21.765625 L 13.828125 -19.46875 L 8.828125 -18.84375 L 8.46875 -21.78125 C 8.445312 -21.988281 8.351562 -22.160156 8.1875 -22.296875 C 8.03125 -22.429688 7.851562 -22.488281 7.65625 -22.46875 L 5.265625 -22.171875 C 5.066406 -22.148438 4.910156 -22.050781 4.796875 -21.875 C 4.679688 -21.707031 4.632812 -21.519531 4.65625 -21.3125 L 6.6875 -4.875 C 6.707031 -4.664062 6.789062 -4.492188 6.9375 -4.359375 C 7.09375 -4.234375 7.269531 -4.179688 7.46875 -4.203125 L 9.859375 -4.5 C 10.054688 -4.519531 10.21875 -4.613281 10.34375 -4.78125 C 10.46875 -4.945312 10.519531 -5.132812 10.5 -5.34375 L 9.796875 -11.03125 Z M 7.828125 -10.796875 "/></g></g></g><g fill="#000000" fill-opacity="1"><g transform="translate(184.214627, 91.085575)"><g><path d="M 7.828125 -9.171875 L 7.203125 0.46875 L 1.90625 0.125 L 3.5 -24.421875 L 8.796875 -24.078125 L 8.125 -13.78125 L 12.328125 -13.515625 L 13 -23.8125 L 18.328125 -23.453125 L 16.734375 1.09375 L 11.40625 0.734375 L 12.03125 -8.90625 Z M 7.828125 -9.171875 "/></g></g></g><g fill="#000000" fill-opacity="1"><g transform="translate(202.838901, 92.48652)"><g><path d="M 5.234375 -19.359375 L 6.3125 -23.765625 L 19.234375 -20.625 L 18.15625 -16.21875 L 14.265625 -17.171875 L 9.515625 2.3125 L 4.359375 1.0625 L 9.109375 -18.421875 Z M 5.234375 -19.359375 "/></g></g></g><g fill="#000000" fill-opacity="1"><g transform="translate(216.860956, 95.727736)"><g><path d="M 22.984375 -11.71875 L 16.859375 2.3125 C 15.515625 5.375 13.40625 6.273438 10.53125 5.015625 L 5.90625 2.984375 C 3.03125 1.734375 2.265625 -0.421875 3.609375 -3.484375 L 9.734375 -17.515625 C 11.078125 -20.578125 13.1875 -21.484375 16.0625 -20.234375 L 20.6875 -18.203125 C 23.5625 -16.941406 24.328125 -14.78125 22.984375 -11.71875 Z M 11.75 0.734375 L 18.390625 -14.453125 C 18.472656 -14.640625 18.476562 -14.828125 18.40625 -15.015625 C 18.332031 -15.210938 18.207031 -15.351562 18.03125 -15.4375 L 15.8125 -16.40625 C 15.632812 -16.476562 15.453125 -16.472656 15.265625 -16.390625 C 15.078125 -16.304688 14.941406 -16.171875 14.859375 -15.984375 L 8.21875 -0.796875 C 8.132812 -0.609375 8.128906 -0.414062 8.203125 -0.21875 C 8.273438 -0.03125 8.398438 0.0976562 8.578125 0.171875 L 10.796875 1.140625 C 10.972656 1.222656 11.15625 1.222656 11.34375 1.140625 C 11.53125 1.054688 11.664062 0.921875 11.75 0.734375 Z M 11.75 0.734375 "/></g></g></g><g fill="#000000" fill-opacity="1"><g transform="translate(233.581588, 103.058599)"><g><path d="M 13.203125 9.046875 L 8.8125 6.03125 L 20.34375 -10.8125 C 20.457031 -10.96875 20.5 -11.148438 20.46875 -11.359375 C 20.445312 -11.566406 20.351562 -11.726562 20.1875 -11.84375 L 18.484375 -13 C 18.316406 -13.113281 18.132812 -13.144531 17.9375 -13.09375 C 17.738281 -13.039062 17.582031 -12.9375 17.46875 -12.78125 L 5.9375 4.0625 L 1.53125 1.046875 L 12.8125 -15.421875 C 14.695312 -18.171875 16.9375 -18.65625 19.53125 -16.875 L 23.421875 -14.21875 C 26.015625 -12.4375 26.367188 -10.171875 24.484375 -7.421875 Z M 13.203125 9.046875 "/></g></g></g><g fill="#000000" fill-opacity="1"><g transform="translate(124.842126, 291.597521)"><g><path d="M 18.546875 -5.5 C 19.734375 -4.21875 19.84375 -2.644531 18.875 -0.78125 L 16.828125 3.125 C 15.285156 6.09375 13.125 6.847656 10.34375 5.390625 L 1.6875 0.875 L 13.0625 -20.9375 L 21.453125 -16.5625 C 24.234375 -15.101562 24.847656 -12.882812 23.296875 -9.90625 L 22.265625 -7.921875 C 21.328125 -6.117188 20.085938 -5.3125 18.546875 -5.5 Z M 18.578125 -13.953125 L 16.09375 -15.25 L 13.0625 -9.4375 L 15.546875 -8.140625 C 15.734375 -8.046875 15.921875 -8.03125 16.109375 -8.09375 C 16.304688 -8.164062 16.445312 -8.289062 16.53125 -8.46875 L 18.875 -12.953125 C 18.96875 -13.128906 18.988281 -13.316406 18.9375 -13.515625 C 18.882812 -13.710938 18.765625 -13.859375 18.578125 -13.953125 Z M 11.84375 1.203125 L 14.40625 -3.6875 C 14.488281 -3.863281 14.503906 -4.050781 14.453125 -4.25 C 14.398438 -4.445312 14.285156 -4.59375 14.109375 -4.6875 L 11.34375 -6.125 L 8.09375 0.109375 L 10.859375 1.546875 C 11.035156 1.640625 11.222656 1.648438 11.421875 1.578125 C 11.617188 1.503906 11.757812 1.378906 11.84375 1.203125 Z M 11.84375 1.203125 "/></g></g></g><g fill="#000000" fill-opacity="1"><g transform="translate(146.035925, 302.047339)"><g><path d="M 18.15625 -20.734375 C 21.175781 -19.859375 22.21875 -17.816406 21.28125 -14.609375 L 15.734375 4.5625 L 10.625 3.078125 L 12.921875 -4.84375 L 9.234375 -5.90625 L 6.9375 2.015625 L 1.828125 0.53125 L 7.375 -18.640625 C 8.3125 -21.847656 10.285156 -23.015625 13.296875 -22.140625 Z M 10.375 -9.84375 L 14.0625 -8.78125 L 16.359375 -16.703125 C 16.410156 -16.898438 16.390625 -17.09375 16.296875 -17.28125 C 16.203125 -17.46875 16.0625 -17.585938 15.875 -17.640625 L 13.5625 -18.3125 C 13.375 -18.363281 13.191406 -18.332031 13.015625 -18.21875 C 12.835938 -18.113281 12.722656 -17.960938 12.671875 -17.765625 Z M 10.375 -9.84375 "/></g></g></g><g fill="#000000" fill-opacity="1"><g transform="translate(169.007053, 308.031208)"><g><path d="M 16.09375 -19.65625 L 7.125 -3.28125 L 14.421875 -2.5625 L 14.03125 1.375 L 1.21875 0.125 L 1.53125 -3.125 L 10.546875 -19.65625 L 3.4375 -20.359375 L 3.828125 -24.34375 L 16.421875 -23.109375 Z M 16.09375 -19.65625 "/></g></g></g><g fill="#000000" fill-opacity="1"><g transform="translate(189.356945, 309.68329)"><g><path d="M 9.453125 -25.890625 C 12.578125 -26.160156 14.285156 -24.628906 14.578125 -21.296875 L 16.3125 -1.421875 L 11.015625 -0.953125 L 10.296875 -9.171875 L 6.46875 -8.84375 L 7.1875 -0.625 L 1.90625 -0.171875 L 0.171875 -20.046875 C -0.117188 -23.378906 1.289062 -25.179688 4.40625 -25.453125 Z M 6.109375 -12.921875 L 9.9375 -13.25 L 9.234375 -21.46875 C 9.210938 -21.675781 9.125 -21.847656 8.96875 -21.984375 C 8.8125 -22.128906 8.632812 -22.191406 8.4375 -22.171875 L 6.046875 -21.96875 C 5.847656 -21.945312 5.6875 -21.851562 5.5625 -21.6875 C 5.4375 -21.53125 5.382812 -21.347656 5.40625 -21.140625 Z M 6.109375 -12.921875 "/></g></g></g><g fill="#000000" fill-opacity="1"><g transform="translate(213.163439, 307.054037)"><g><path d="M 4.125 -27.25 C 7.132812 -28.144531 9.113281 -26.988281 10.0625 -23.78125 L 15.703125 -4.640625 L 10.609375 -3.125 L 8.28125 -11.03125 L 4.59375 -9.953125 L 6.921875 -2.046875 L 1.828125 -0.546875 L -3.8125 -19.6875 C -4.757812 -22.894531 -3.726562 -24.941406 -0.71875 -25.828125 Z M 3.421875 -13.890625 L 7.109375 -14.96875 L 4.78125 -22.875 C 4.71875 -23.070312 4.597656 -23.222656 4.421875 -23.328125 C 4.242188 -23.441406 4.0625 -23.46875 3.875 -23.40625 L 1.5625 -22.734375 C 1.375 -22.671875 1.234375 -22.546875 1.140625 -22.359375 C 1.046875 -22.179688 1.03125 -21.992188 1.09375 -21.796875 Z M 3.421875 -13.890625 "/></g></g></g><g fill="#000000" fill-opacity="1"><g transform="translate(235.913488, 299.738906)"><g><path d="M 1.71875 -12.265625 L 6.390625 -3.359375 L 1.6875 -0.890625 L -9.734375 -22.671875 L -1.359375 -27.0625 C 1.421875 -28.519531 3.585938 -27.765625 5.140625 -24.796875 L 6.46875 -22.28125 C 7.40625 -20.488281 7.363281 -19.003906 6.34375 -17.828125 C 7.6875 -18.015625 8.734375 -17.394531 9.484375 -15.96875 L 14 -7.34375 L 9.28125 -4.875 L 4.953125 -13.125 C 4.722656 -13.5625 4.394531 -13.664062 3.96875 -13.4375 Z M -3.34375 -21.921875 L -0.015625 -15.578125 L 2.484375 -16.875 C 2.660156 -16.976562 2.769531 -17.128906 2.8125 -17.328125 C 2.863281 -17.523438 2.847656 -17.707031 2.765625 -17.875 L 0.125 -22.90625 C 0.03125 -23.082031 -0.109375 -23.203125 -0.296875 -23.265625 C -0.484375 -23.335938 -0.664062 -23.320312 -0.84375 -23.21875 Z M -3.34375 -21.921875 "/></g></g></g><g fill="#000000" fill-opacity="1"><g transform="translate(66.708405, 187.920501)"><g><path d="M 4.96875 -3.03125 L 9.015625 -3.03125 L 9.015625 0 L 1.3125 0 L 1.3125 -16.90625 L 9.015625 -16.90625 L 9.015625 -13.9375 L 4.96875 -13.9375 L 4.96875 -9.953125 L 8.75 -9.953125 L 8.75 -7.078125 L 4.96875 -7.078125 Z M 4.96875 -3.03125 "/></g></g></g><g fill="#000000" fill-opacity="1"><g transform="translate(76.538765, 187.920501)"><g><path d="M 10.6875 -12.46875 L 7.21875 -12.46875 L 7.21875 -13.796875 C 7.21875 -13.941406 7.164062 -14.066406 7.0625 -14.171875 C 6.96875 -14.273438 6.851562 -14.328125 6.71875 -14.328125 L 5.28125 -14.328125 C 5.144531 -14.328125 5.023438 -14.273438 4.921875 -14.171875 C 4.828125 -14.066406 4.78125 -13.941406 4.78125 -13.796875 L 4.78125 -10.796875 C 4.78125 -10.660156 4.828125 -10.535156 4.921875 -10.421875 C 5.023438 -10.316406 5.144531 -10.265625 5.28125 -10.265625 L 7.640625 -10.265625 C 9.796875 -10.234375 10.875 -9.085938 10.875 -6.828125 L 10.875 -3.1875 C 10.875 -0.882812 9.796875 0.265625 7.640625 0.265625 L 4.546875 0.265625 C 2.390625 0.265625 1.3125 -0.882812 1.3125 -3.1875 L 1.3125 -4.9375 L 4.78125 -4.9375 L 4.78125 -3.0625 C 4.78125 -2.914062 4.828125 -2.789062 4.921875 -2.6875 C 5.023438 -2.582031 5.144531 -2.53125 5.28125 -2.53125 L 6.90625 -2.53125 C 7.039062 -2.53125 7.15625 -2.582031 7.25 -2.6875 C 7.34375 -2.789062 7.390625 -2.914062 7.390625 -3.0625 L 7.390625 -6.375 C 7.390625 -6.519531 7.34375 -6.644531 7.25 -6.75 C 7.15625 -6.851562 7.039062 -6.90625 6.90625 -6.90625 L 4.546875 -6.90625 C 2.390625 -6.90625 1.3125 -8.054688 1.3125 -10.359375 L 1.3125 -13.71875 C 1.3125 -16.019531 2.390625 -17.171875 4.546875 -17.171875 L 7.453125 -17.171875 C 9.609375 -17.171875 10.6875 -16.019531 10.6875 -13.71875 Z M 10.6875 -12.46875 "/></g></g></g><g fill="#000000" fill-opacity="1"><g transform="translate(66.333405, 209.6705)"><g><path d="M 0.34375 -13.796875 L 0.34375 -16.90625 L 9.484375 -16.90625 L 9.484375 -13.796875 L 6.75 -13.796875 L 6.75 0 L 3.078125 0 L 3.078125 -13.796875 Z M 0.34375 -13.796875 "/></g></g></g><g fill="#000000" fill-opacity="1"><g transform="translate(76.189903, 209.6705)"><g><path d="M 8.03125 -16.90625 C 10.1875 -16.90625 11.265625 -15.757812 11.265625 -13.46875 L 11.265625 -3.453125 C 11.265625 -1.148438 10.1875 0 8.03125 0 L 1.3125 0 L 1.3125 -16.90625 Z M 7.609375 -3.03125 L 7.609375 -13.90625 C 7.609375 -14.039062 7.554688 -14.160156 7.453125 -14.265625 C 7.359375 -14.367188 7.242188 -14.421875 7.109375 -14.421875 L 4.96875 -14.421875 L 4.96875 -2.515625 L 7.109375 -2.515625 C 7.242188 -2.515625 7.359375 -2.566406 7.453125 -2.671875 C 7.554688 -2.773438 7.609375 -2.894531 7.609375 -3.03125 Z M 7.609375 -3.03125 "/></g></g></g><g fill="#000000" fill-opacity="1"><g transform="translate(284.652078, 188.03163)"><g><path d="M 4.890625 -5.796875 L 4.890625 -3 L 10.53125 -3 L 10.53125 0 L 1.546875 0 L 1.546875 -6.09375 C 1.546875 -8.394531 2.625 -9.546875 4.78125 -9.546875 L 6.875 -9.546875 C 7.007812 -9.546875 7.125 -9.597656 7.21875 -9.703125 C 7.320312 -9.804688 7.375 -9.925781 7.375 -10.0625 L 7.375 -13.796875 C 7.375 -13.941406 7.320312 -14.066406 7.21875 -14.171875 C 7.125 -14.273438 7.007812 -14.328125 6.875 -14.328125 L 5.328125 -14.328125 C 5.191406 -14.328125 5.078125 -14.273438 4.984375 -14.171875 C 4.890625 -14.066406 4.84375 -13.941406 4.84375 -13.796875 L 4.84375 -12.46875 L 1.359375 -12.46875 L 1.359375 -13.71875 C 1.359375 -16.019531 2.4375 -17.171875 4.59375 -17.171875 L 7.5 -17.171875 C 9.664062 -17.171875 10.75 -16.019531 10.75 -13.71875 L 10.75 -9.78125 C 10.75 -7.476562 9.664062 -6.328125 7.5 -6.328125 L 5.390625 -6.328125 C 5.242188 -6.328125 5.125 -6.273438 5.03125 -6.171875 C 4.9375 -6.066406 4.890625 -5.941406 4.890625 -5.796875 Z M 4.890625 -5.796875 "/></g></g></g><g fill="#000000" fill-opacity="1"><g transform="translate(296.78236, 188.03163)"><g><path d="M 10.90625 -13.71875 L 10.90625 -3.1875 C 10.90625 -0.882812 9.820312 0.265625 7.65625 0.265625 L 4.546875 0.265625 C 2.390625 0.265625 1.3125 -0.882812 1.3125 -3.1875 L 1.3125 -13.71875 C 1.3125 -16.019531 2.390625 -17.171875 4.546875 -17.171875 L 7.65625 -17.171875 C 9.820312 -17.171875 10.90625 -16.019531 10.90625 -13.71875 Z M 7.34375 -2.765625 L 7.34375 -14.171875 C 7.34375 -14.304688 7.296875 -14.425781 7.203125 -14.53125 C 7.109375 -14.632812 6.988281 -14.6875 6.84375 -14.6875 L 5.359375 -14.6875 C 5.222656 -14.6875 5.101562 -14.632812 5 -14.53125 C 4.90625 -14.425781 4.859375 -14.304688 4.859375 -14.171875 L 4.859375 -2.765625 C 4.859375 -2.628906 4.90625 -2.507812 5 -2.40625 C 5.101562 -2.300781 5.222656 -2.25 5.359375 -2.25 L 6.84375 -2.25 C 6.988281 -2.25 7.109375 -2.300781 7.203125 -2.40625 C 7.296875 -2.507812 7.34375 -2.628906 7.34375 -2.765625 Z M 7.34375 -2.765625 "/></g></g></g><g fill="#000000" fill-opacity="1"><g transform="translate(284.50693, 210.223184)"><g><path d="M 4.890625 -5.796875 L 4.890625 -3 L 10.53125 -3 L 10.53125 0 L 1.546875 0 L 1.546875 -6.09375 C 1.546875 -8.394531 2.625 -9.546875 4.78125 -9.546875 L 6.875 -9.546875 C 7.007812 -9.546875 7.125 -9.597656 7.21875 -9.703125 C 7.320312 -9.804688 7.375 -9.925781 7.375 -10.0625 L 7.375 -13.796875 C 7.375 -13.941406 7.320312 -14.066406 7.21875 -14.171875 C 7.125 -14.273438 7.007812 -14.328125 6.875 -14.328125 L 5.328125 -14.328125 C 5.191406 -14.328125 5.078125 -14.273438 4.984375 -14.171875 C 4.890625 -14.066406 4.84375 -13.941406 4.84375 -13.796875 L 4.84375 -12.46875 L 1.359375 -12.46875 L 1.359375 -13.71875 C 1.359375 -16.019531 2.4375 -17.171875 4.59375 -17.171875 L 7.5 -17.171875 C 9.664062 -17.171875 10.75 -16.019531 10.75 -13.71875 L 10.75 -9.78125 C 10.75 -7.476562 9.664062 -6.328125 7.5 -6.328125 L 5.390625 -6.328125 C 5.242188 -6.328125 5.125 -6.273438 5.03125 -6.171875 C 4.9375 -6.066406 4.890625 -5.941406 4.890625 -5.796875 Z M 4.890625 -5.796875 "/></g></g></g><g fill="#000000" fill-opacity="1"><g transform="translate(296.637211, 210.223184)"><g><path d="M 9.546875 -8.65625 C 10.359375 -8.082031 10.765625 -7.097656 10.765625 -5.703125 L 10.765625 -3.1875 C 10.765625 -0.882812 9.6875 0.265625 7.53125 0.265625 L 4.4375 0.265625 C 2.28125 0.265625 1.203125 -0.882812 1.203125 -3.1875 L 1.203125 -4.578125 L 4.46875 -4.578125 L 4.46875 -3.03125 C 4.46875 -2.894531 4.515625 -2.773438 4.609375 -2.671875 C 4.703125 -2.566406 4.820312 -2.515625 4.96875 -2.515625 L 7.03125 -2.515625 C 7.164062 -2.515625 7.28125 -2.566406 7.375 -2.671875 C 7.476562 -2.773438 7.53125 -2.894531 7.53125 -3.03125 L 7.53125 -6.640625 C 7.53125 -6.773438 7.476562 -6.894531 7.375 -7 C 7.28125 -7.101562 7.164062 -7.15625 7.03125 -7.15625 L 4.34375 -7.15625 L 4.34375 -9.984375 L 6.875 -9.984375 C 7.007812 -9.984375 7.125 -10.035156 7.21875 -10.140625 C 7.320312 -10.242188 7.375 -10.367188 7.375 -10.515625 L 7.375 -13.796875 C 7.375 -13.941406 7.320312 -14.066406 7.21875 -14.171875 C 7.125 -14.273438 7.007812 -14.328125 6.875 -14.328125 L 5.125 -14.328125 C 4.988281 -14.328125 4.867188 -14.273438 4.765625 -14.171875 C 4.671875 -14.066406 4.625 -13.941406 4.625 -13.796875 L 4.625 -12.125 L 1.359375 -12.125 L 1.359375 -13.71875 C 1.359375 -16.019531 2.4375 -17.171875 4.59375 -17.171875 L 7.375 -17.171875 C 9.53125 -17.171875 10.609375 -16.019531 10.609375 -13.71875 L 10.609375 -11.46875 C 10.609375 -10.113281 10.253906 -9.175781 9.546875 -8.65625 Z M 9.546875 -8.65625 "/></g></g></g></svg>